<?xml version="1.0"?>
<svg width="500" height="500" xmlns="http://www.w3.org/2000/svg" xmlns:svg="http://www.w3.org/2000/svg">
 <title>file_type_excel</title>
 <g class="layer">
  <title>Layer 1</title>
  <g id="svg_1">
   <path d="m57.95,37.05l368.77,0a36.75,36.93 0 0 1 37.07,36.93l0,369.86a36.75,36.93 0 0 1 -37.07,36.93l-368.77,0a36.75,36.93 0 0 1 -36.75,-36.93l0,-369.86a36.75,36.93 0 0 1 36.75,-36.93z" fill="#cccccc" fill-opacity="0.3" id="svg_2"/>
   <path d="m72.96,23.83l368.77,0a36.75,36.93 0 0 1 37.07,36.93l0,369.86a36.75,36.93 0 0 1 -37.07,36.93l-368.77,0a36.75,36.93 0 0 1 -36.75,-36.93l0,-369.86a36.75,36.93 0 0 1 36.75,-36.93z" fill="#ffffff" id="svg_8"/>
   <path d="m87.29,40.73l340.53,0a33.94,34.1 0 0 1 34.23,34.1l0,341.54a33.94,34.1 0 0 1 -34.23,34.1l-340.53,0a33.94,34.1 0 0 1 -33.94,-34.1l0,-341.54a33.94,34.1 0 0 1 33.94,-34.1z" fill="#134328" id="svg_4"/>
   <g id="svg_11">
    <circle cx="366.04" cy="350.89" fill="#185c37" id="svg_7" r="85.51"/>
    <circle cx="366.04" cy="350.89" fill="#ffffff" id="svg_10" r="76.43"/>
   </g>
   <g id="svg_6">
    <path d="m102.66,68.97l206.2,0a20.55,19.56 0 0 1 20.72,19.56l0,195.97a20.55,19.56 0 0 1 -20.72,19.56l-206.2,0a20.55,19.56 0 0 1 -20.55,-19.56l0,-195.97a20.55,19.56 0 0 1 20.55,-19.56z" fill="#118045" id="svg_5"/>
    <path d="m135.46,265.39l50.98,-79.18l-46.72,-78.77l37.58,0l25.4,50.4c2.44,4.69 4.06,8.37 4.88,10.62l0.41,0c1.63,-3.68 3.45,-7.55 5.28,-11.02l27.21,-49.99l34.54,0l-47.94,78.35l49.16,79.78l-36.76,0l-29.45,-55.31a47.73,47.96 0 0 1 -3.45,-7.55l-0.41,0a34.33,34.48 0 0 1 -3.45,7.15l-30.46,55.5l-36.76,0l-0.02,0.01z" fill="#fff" id="svg_9"/>
   </g>
   <text fill="#8bc08a" font-family="Helvetica" font-size="24" id="svg_12" stroke-width="0" text-anchor="middle" transform="matrix(6.3417 0 0 6.3417 1384.76 -968.324)" x="-162.75" xml:space="preserve" y="213.54">a</text>
   <text fill="#8bc08a" font-family="Helvetica" font-size="24" id="svg_13" stroke-width="0" text-anchor="middle" transform="matrix(7.87179 0 0 7.87179 1414.11 -1474.74)" x="-127.33" xml:space="preserve" y="247.75">&#x27;</text>
  </g>
 </g>
</svg>