<?xml version="1.0"?>
<svg width="500" height="500" xmlns="http://www.w3.org/2000/svg" xmlns:svg="http://www.w3.org/2000/svg" version="1.2">
 <defs>
  <linearGradient id="a" x1="0.17" x2="0.83" y1="-0.07" y2="1.07">
   <stop offset="0" stop-color="#18884f"/>
   <stop offset="0.5" stop-color="#117e43"/>
   <stop offset="1" stop-color="#0b6631"/>
  </linearGradient>
 </defs>
 <g class="layer">
  <title>Layer 1</title>
  <path class="s0" d="m499.1,92.39l0,315.63c0,50.51 -41.16,91.39 -91.55,91.39l-316.2,0c-50.39,0 -91.45,-41.08 -91.45,-91.39l0,-315.63c0,-50.51 40.96,-91.39 91.45,-91.39l316.2,0c50.39,0 91.55,40.98 91.55,91.39z" fill="#134328" id="svg_5" transform="matrix(1 0 0 1 0 0)"/>
  <g id="svg_24" transform="matrix(1 0 0 1 0 0)">
   <ellipse cx="357" cy="362.5" fill="#185c37" id="svg_22" rx="111.5" ry="113"/>
   <g id="svg_23">
    <ellipse cx="357" cy="362.5" fill="#ffffff" id="svg_21" rx="100.9" ry="102.26"/>
   </g>
  </g>
  <g id="svg_39">
   <text fill="#8bc08a" font-family="Courier" font-size="24" id="svg_40" stroke-width="0" text-anchor="middle" transform="matrix(6.53126 0 0 6.53126 -766.457 -624.732)" x="181.41" xml:space="preserve" y="156.73">,</text>
   <text fill="#8bc08a" font-family="Helvetica" font-size="24" id="svg_41" stroke-width="0" text-anchor="middle" transform="matrix(7.54691 0 0 7.54691 472.347 -1617.05)" x="-17.69" xml:space="preserve" y="267.72">a</text>
  </g>
  <g id="svg_34" transform="matrix(1 0 0 1 0 0)">
   <path d="m65.76,40.15l228.34,0a22.76,22.6 0 0 1 22.95,22.6l0,226.32a22.76,22.6 0 0 1 -22.95,22.6l-228.34,0a22.76,22.6 0 0 1 -22.76,-22.6l0,-226.32a22.76,22.6 0 0 1 22.76,-22.6z" fill="url(#a)" id="svg_8"/>
   <path d="m113.76,249.37l48,-73.67l-43.99,-73.29l35.38,0l23.91,46.9c2.3,4.37 3.82,7.79 4.59,9.88l0.39,0c1.54,-3.42 3.25,-7.02 4.97,-10.25l25.63,-46.51l32.52,0l-45.13,72.9l46.28,74.24l-34.62,0l-27.73,-51.46a44.94,44.62 0 0 1 -3.25,-7.02l-0.39,0a32.32,32.09 0 0 1 -3.25,6.65l-28.68,51.64l-34.62,0z" fill="#fff" id="svg_9"/>
  </g>
 </g>
</svg>